HIERARCHY
ROOT Hips
{
	OFFSET 0.000000 8.830580 0.000000
	CHANNELS 6 Xposition Yposition Zposition Zrotation Yrotation Xrotation 
	JOINT Spine
	{
		OFFSET 0.000000 0.010000 0.000000
		CHANNELS 3 Zrotation Yrotation Xrotation
		JOINT Spine1
		{
			OFFSET 0.000000 2.459130 0.000000
			CHANNELS 3 Zrotation Yrotation Xrotation
			JOINT Neck
			{
				OFFSET 0.000000 2.484630 0.000000
				CHANNELS 3 Zrotation Yrotation Xrotation
				JOINT Head_virtual
				{
					OFFSET 0.000000 0.000000 0.000000
					CHANNELS 3 Zrotation Yrotation Xrotation
					JOINT Head
					{
						OFFSET 0.000000 0.927525 0.000000
						CHANNELS 3 Zrotation Yrotation Xrotation
						End Site
						{
							OFFSET 0.000000 0.000000 0.000000
						}
					}
				}
				JOINT LeftUpArm_virtual
				{
					OFFSET 0.000000 0.000000 0.000000
					CHANNELS 3 Zrotation Yrotation Xrotation
					JOINT LeftUpArm
					{
						OFFSET 1.248820 0.000000 0.000000
						CHANNELS 3 Zrotation Yrotation Xrotation
						JOINT LeftForeArm
						{
							OFFSET 2.597580 0.000000 0.000000
							CHANNELS 3 Zrotation Yrotation Xrotation
							JOINT LeftHand
							{
								OFFSET 2.455420 0.000000 0.000000
								CHANNELS 3 Zrotation Yrotation Xrotation
								End Site
								{
									OFFSET 0.000000 0.000000 0.000000
								}
							}
						}
					}
				}
				JOINT RightUpArm_virtual
				{
					OFFSET -0.000000 -0.000000 -0.000000
					CHANNELS 3 Zrotation Yrotation Xrotation
					JOINT RightUpArm
					{
						OFFSET -1.248820 -0.000000 -0.000000
						CHANNELS 3 Zrotation Yrotation Xrotation
						JOINT RightForeArm
						{
							OFFSET -2.597580 -0.000000 -0.000000
							CHANNELS 3 Zrotation Yrotation Xrotation
							JOINT RightHand
							{
								OFFSET -2.455420 -0.000000 -0.000000
								CHANNELS 3 Zrotation Yrotation Xrotation
								End Site
								{
									OFFSET 0.000000 0.000000 0.000000
								}
							}
						}
					}
				}
			}
		}
	}
	JOINT LeftUpLeg
	{
		OFFSET 1.271939 0.000000 0.000000
		CHANNELS 3 Zrotation Yrotation Xrotation
		JOINT LeftLowLeg
		{
			OFFSET 0.000000 -4.342910 0.000000
			CHANNELS 3 Zrotation Yrotation Xrotation
			JOINT LeftFoot
			{
				OFFSET 0.000000 -4.487670 0.000000
				CHANNELS 3 Zrotation Yrotation Xrotation
				JOINT LeftToeBase
				{
					OFFSET 0.000000 0.000000 1.515070
					CHANNELS 3 Zrotation Yrotation Xrotation
					End Site
					{
						OFFSET 0.000000 0.000000 0.000000
					}
				}
			}
		}
	}
	JOINT RightUpLeg
	{
		OFFSET -1.271939 0.000000 0.000000
		CHANNELS 3 Zrotation Yrotation Xrotation
		JOINT RightLowLeg
		{
			OFFSET 0.000000 -4.342910 0.000000
			CHANNELS 3 Zrotation Yrotation Xrotation
			JOINT RightFoot
			{
				OFFSET 0.000000 -4.487670 0.000000
				CHANNELS 3 Zrotation Yrotation Xrotation
				JOINT RightToeBase
				{
					OFFSET 0.000000 0.000000 1.515070
					CHANNELS 3 Zrotation Yrotation Xrotation
					End Site
					{
						OFFSET 0.000000 0.000000 0.000000
					}
				}
			}
		}
	}
}
MOTION
Frames: 7
Frame Time: 0.041667
-17.270932 9.097798 44.108530 179.596690 15.613338 176.603952 -0.166312 -1.814881 -7.807291 -3.632818 5.713873 20.837814 0.000000 0.000000 0.000000 16.872318 -13.560510 10.657862 -9.583260 8.045373 -90.448820 -24.878300 0.796392 7.218994 -41.600800 -17.097799 23.968800 180.000000 -65.980003 180.000000 24.613100 28.045799 7.616830 27.937700 -5.068740 4.493011 39.201302 19.739700 12.938995 -180.000000 59.262001 -180.000000 -12.134700 -15.043500 28.844200 -6.126197 0.086907 2.722613 0.000000 0.000000 15.290000 -15.700282 13.475804 -8.125353 0.000000 0.000000 -19.046660 -6.861768 5.235447 -8.311769 0.000000 0.000000 30.599800 38.074697 7.501797 -1.317983 0.000000 0.000000 -19.208560 
-17.268089 9.098864 44.119984 179.605000 15.749138 176.982832 -0.222368 -1.728537 -7.718224 -3.697918 5.760779 20.534046 0.000000 0.000000 0.000000 17.014896 -13.657870 10.345161 -9.598023 8.106189 -90.573239 -24.860800 0.813995 7.292999 -41.614498 -17.156200 23.895800 180.000000 -65.833000 180.000000 24.129499 27.816601 6.475650 28.022200 -5.026220 4.765991 38.997101 19.810499 13.649994 -180.000000 59.589996 180.000000 -12.089300 -14.420600 29.511600 -6.073338 0.187831 2.341843 0.000000 0.000000 15.179300 -15.695472 13.486502 -8.060999 0.000000 0.000000 -19.044680 -6.858950 5.269894 -8.777051 0.000000 0.000000 30.583200 38.021381 7.491752 -1.262378 0.000000 0.000000 -19.095130 
-17.265214 9.100172 44.130381 179.613146 15.845202 177.298166 -0.335878 -1.714805 -7.668385 -3.607341 5.832187 20.414643 0.000000 0.000000 0.000000 17.159675 -13.780787 9.916154 -9.618894 8.158344 -90.719509 -24.879601 0.786029 7.217010 -41.665901 -17.178200 23.963301 180.000000 -65.714996 -180.000000 24.716801 28.353399 6.714430 28.034500 -4.999360 4.877014 38.881599 19.892300 14.141998 180.000000 59.842003 -180.000000 -12.645300 -14.060800 28.325300 -6.021872 0.287814 2.027436 0.000000 0.000000 15.069500 -15.695764 13.470345 -7.986478 0.000000 0.000000 -19.066730 -6.854681 5.274727 -9.138608 0.000000 0.000000 30.500200 38.017232 7.494392 -1.159607 0.000000 0.000000 -19.155960 
-17.262381 9.101851 44.139781 179.620817 15.922362 177.577354 -0.341955 -1.730503 -7.913342 -3.653569 5.849049 20.932055 0.000000 0.000000 0.000000 17.248006 -13.766180 8.916976 -9.598342 8.394006 -90.571494 -24.666901 0.817361 6.903992 -41.916401 -17.287600 24.042700 -180.000000 -65.695999 180.000000 25.886101 28.384399 8.110030 27.941401 -4.896260 4.605988 39.114700 20.083799 14.605988 -180.000000 60.010002 -180.000000 -13.653900 -13.458300 27.492100 -5.978132 0.327848 1.760679 0.000000 0.000000 14.948100 -15.699139 13.484752 -7.910311 0.000000 0.000000 -19.045740 -6.847421 5.297145 -9.430801 0.000000 0.000000 30.379000 38.018286 7.473365 -1.080984 0.000000 0.000000 -19.133970 
-17.259251 9.103529 44.148161 179.660408 16.000274 177.810537 -0.354544 -1.737509 -7.743712 -3.697346 5.811774 20.691694 0.000000 0.000000 0.000000 17.215942 -13.692723 8.658761 -9.640721 8.436603 -90.748445 -24.735300 0.865032 7.118988 -41.752800 -17.314400 23.681801 180.000000 -65.703003 -180.000000 26.072800 27.988501 8.389450 28.084200 -4.878990 4.786011 39.030499 20.295300 14.476990 -180.000000 60.134003 -180.000000 -14.269600 -12.333900 27.810801 -5.905388 0.360859 1.555931 0.000000 0.000000 14.828900 -15.740321 13.485806 -7.864148 0.000000 0.000000 -19.043080 -6.803787 5.331733 -9.638789 0.000000 0.000000 30.220301 38.054048 7.459726 -1.000065 0.000000 0.000000 -19.063440 
-17.256549 9.104457 44.156487 179.699828 16.038431 178.016553 -0.499724 -1.805336 -7.503896 -3.425576 5.866542 20.374304 0.000000 0.000000 0.000000 17.114066 -13.673170 8.395123 -9.669849 8.389681 -90.889822 -24.940300 0.813754 7.333008 -41.578400 -17.254801 23.379000 -180.000000 -65.745003 180.000000 25.544800 27.409000 8.524560 28.047199 -5.025490 4.652008 39.153702 20.362600 14.197998 180.000000 60.332001 180.000000 -15.103700 -11.091300 26.938999 -5.832177 0.403879 1.352214 0.000000 0.000000 14.754400 -15.741795 13.463796 -7.825869 0.000000 0.000000 -19.025500 -6.757791 5.414918 -9.822707 0.000000 0.000000 30.087999 38.163377 7.424624 -0.962773 0.000000 0.000000 -19.006910 
-17.254808 9.108883 44.165392 179.748926 16.073079 178.173447 0.075778 -1.715674 -8.175721 -4.578447 5.485304 21.878118 0.000000 0.000000 0.000000 17.267173 -13.254406 6.819736 -9.795504 9.155870 -90.347334 -23.992100 1.227610 6.506989 -42.102600 -17.577999 23.344999 180.000000 -65.736000 -180.000000 25.072599 27.700300 8.709860 28.071899 -4.254380 3.674011 40.109901 20.342501 14.175995 180.000000 60.546997 180.000000 -17.851601 -10.481100 23.367800 -5.754723 0.436920 1.171754 0.000000 0.000000 14.719500 -15.738266 13.467975 -7.700184 0.000000 0.000000 -19.104450 -6.705559 5.460622 -9.929555 0.000000 0.000000 29.882099 38.172056 7.308565 -0.817039 0.000000 0.000000 -19.016110 
